<?xml version="1.0" encoding="utf-8"?>
<!-- Generator: Adobe Illustrator 20.0.0, SVG Export Plug-In . SVG Version: 6.00 Build 0)  -->
<svg version="1.1" id="Layer_1" xmlns="http://www.w3.org/2000/svg" xmlns:xlink="http://www.w3.org/1999/xlink" x="0px" y="0px"
	 viewBox="0 0 200 200" style="enable-background:new 0 0 200 200;" xml:space="preserve">
<style type="text/css">
	.st0{display:none;}
	.st1{fill:none;}
	.st2{fill:#FFFFFF;}
</style>
<path class="st0" d="M150.8,95.9l37.4-18.1l-41.5,1.7c-3.8-8.8-10-16.1-17.6-21.4l5.8-16.6L123,54.5c-8.2-4.2-17.6-6.1-27.1-5.3
	L77.7,11.8l1.7,41.6c-8.8,3.8-16.1,10-21.3,17.5l-16.6-5.8l13,11.9c-4.1,8.2-6.1,17.5-5.3,27.1l-37.5,18.1l41.6-1.7
	c3.8,8.8,10,16.1,17.5,21.3L65,158.4l11.9-13c8.2,4.2,17.5,6.1,27.1,5.3l18.1,37.4l-1.7-41.6c8.8-3.8,16.1-10,21.3-17.5l16.6,5.8
	L145.5,123C149.6,114.8,151.6,105.5,150.8,95.9z M131.1,123.6c-5.2,6.8-12.6,12-21.5,14.2c-8.9,2.3-17.9,1.2-25.7-2.3
	c-2.6-1.2-5.1-2.7-7.4-4.4c-6.8-5.2-12-12.6-14.2-21.5c-2.3-8.9-1.2-17.9,2.3-25.7c1.2-2.6,2.7-5.1,4.4-7.4
	c5.2-6.8,12.6-12,21.5-14.3c8.9-2.3,17.9-1.2,25.7,2.3c2.6,1.2,5.1,2.7,7.4,4.4c6.8,5.2,12,12.6,14.3,21.5c2.3,9,1.2,18-2.3,25.7
	C134.3,118.8,132.8,121.3,131.1,123.6z"/>
<g>
	<path class="st1" d="M131.1,123.6c1.7-2.3,3.2-4.8,4.4-7.4c3.5-7.8,4.6-16.8,2.3-25.7c-2.3-8.9-7.4-16.4-14.2-21.5
		c-2.3-1.8-4.8-3.2-7.4-4.4c-5-2.3-10.5-3.5-16.2-3.5l0,78.1c3.1,0,6.3-0.4,9.5-1.2C118.5,135.6,125.9,130.4,131.1,123.6z"/>
	<path d="M116.2,64.5c2.6,1.2,5.1,2.7,7.4,4.4c6.8,5.2,12,12.6,14.2,21.5c2.3,8.9,1.2,17.9-2.3,25.7c-1.2,2.6-2.7,5.1-4.4,7.4
		c-5.2,6.8-12.6,12-21.5,14.3c-3.2,0.8-6.4,1.2-9.5,1.2l0,11.9c1.4,0,2.7-0.1,4.1-0.2l18.1,37.4l-1.7-41.6
		c8.8-3.8,16.1-10,21.3-17.5l16.6,5.8l-13-11.9c4.1-8.2,6.1-17.5,5.3-27.1l37.5-18.1l-41.6,1.7c-3.8-8.8-10-16.1-17.5-21.3l5.8-16.6
		l-11.9,13c-7-3.6-14.9-5.5-23-5.5l0,11.9C105.7,61,111.2,62.2,116.2,64.5z"/>
</g>
<path class="st2" d="M83.8,135.5c-2.6-1.2-5.1-2.7-7.4-4.4c-6.8-5.2-12-12.6-14.2-21.5c-2.3-8.9-1.2-17.9,2.3-25.7
	c1.2-2.6,2.7-5.1,4.4-7.4c5.2-6.8,12.6-12,21.5-14.3c3.2-0.8,6.4-1.2,9.5-1.2l0-11.9c-1.4,0-2.7,0.1-4.1,0.2L77.7,11.8l1.7,41.6
	c-8.8,3.8-16.1,10-21.3,17.5l-16.6-5.8l13,11.9c-4.1,8.2-6.1,17.5-5.3,27.1l-37.5,18.1l41.6-1.7c3.8,8.8,10,16.1,17.5,21.3L65,158.4
	l11.9-13c7,3.6,14.9,5.5,23,5.5l0-11.9C94.3,139,88.8,137.8,83.8,135.5z"/>
</svg>
