<?xml version="1.0" encoding="utf-8"?>
<!-- Generator: Adobe Illustrator 20.0.0, SVG Export Plug-In . SVG Version: 6.00 Build 0)  -->
<svg version="1.1" id="Layer_1" xmlns="http://www.w3.org/2000/svg" xmlns:xlink="http://www.w3.org/1999/xlink" x="0px" y="0px"
	 viewBox="0 0 200 200" style="enable-background:new 0 0 200 200;" xml:space="preserve">
<style type="text/css">
	.st0{fill:#FFFFFF;}
	.st1{display:none;fill:#ED1C24;}
	.st2{display:none;fill:#333333;}
</style>
<g>
	<path class="st0" d="M123.9,140.4L77,129.2l-0.8,17.9l49,11.7l-0.8-18.3C124.2,140.5,124,140.4,123.9,140.4z"/>
	<polygon class="st0" points="74.7,181.1 124.6,181.1 75.2,169.3 	"/>
	<polygon class="st0" points="103,47.4 115.1,47.4 115.1,33.8 103,33.8 103,47.4 	"/>
	<polygon class="st0" points="100.5,11.9 84.5,20.7 116.4,20.7 	"/>
	<polygon class="st0" points="97.9,47.4 97.9,33.8 85.8,33.8 85.8,47.4 	"/>
	<rect x="74.3" y="52.5" class="st0" width="52.3" height="11.7"/>
	<polygon class="st0" points="78.1,107 123.3,117.8 122.6,100.7 78.8,90.2 	"/>
	<path class="st0" d="M100.5,4.4c-52.5,0-95,42.5-95,95c0,52.5,42.5,95,95,95c52.5,0,95-42.5,95-95C195.5,47,152.9,4.4,100.5,4.4z
		 M131.7,67c0,1.3-1,2.3-2.3,2.3h-3.2l5.1,111.8h0v5.1H69.5v-5.1h0.1l5.1-111.8h-3.2c-1.3,0-2.3-1-2.3-2.3V49.7c0-1.3,1-2.3,2.3-2.3
		h9.3V25.8h-7c-2.3-1.3-2-3.8-0.4-4.7L99.2,6.8c0.8-0.4,1.7-0.4,2.4,0L127.5,21c1.7,0.9,1.9,3.5-0.4,4.7h-7v21.6h9.3
		c1.3,0,2.3,1,2.3,2.3V67z"/>
	<polygon class="st0" points="85.9,69.3 121.5,77.8 121.1,69.3 	"/>
</g>
<circle class="st1" cx="93.5" cy="76.5" r="95"/>
<path class="st2" d="M62.5,163.2h61.8v-5.1h0l-5.1-111.8h3.2c1.3,0,2.3-1,2.3-2.3V26.7c0-1.3-1-2.3-2.3-2.3h-9.3V2.8l7,0
	c2.3-1.3,2-3.8,0.4-4.7L94.7-16.2c-0.8-0.4-1.7-0.4-2.4,0L66.5-2c-1.7,0.9-1.9,3.5,0.4,4.7l7,0v21.6h-9.3c-1.3,0-2.3,1-2.3,2.3V44
	c0,1.3,1,2.3,2.3,2.3h3.2l-5.1,111.8h-0.1V163.2z M69.2,124.1l0.8-17.9l46.8,11.2c0.2,0,0.3,0.1,0.5,0.1l0.8,18.3L69.2,124.1z
	 M115.6,77.7l0.8,17.1L71.1,84l0.8-16.8L115.6,77.7z M114.5,54.8l-35.6-8.6h35.2L114.5,54.8z M96,24.4V10.8h12.1v13.6L96,24.4
	L96,24.4z M93.5-11.1l16,8.8h-32L93.5-11.1z M78.8,10.8l12.1,0v13.6H78.8V10.8z M67.3,29.5h52.3v11.7H67.3V29.5z M68.2,146.3
	l49.3,11.8H67.7L68.2,146.3z"/>
</svg>
