<?xml version="1.0" encoding="utf-8"?>
<!-- Generator: Adobe Illustrator 19.2.1, SVG Export Plug-In . SVG Version: 6.00 Build 0)  -->
<svg version="1.1" id="Layer_1" xmlns="http://www.w3.org/2000/svg" xmlns:xlink="http://www.w3.org/1999/xlink" x="0px" y="0px"
	 viewBox="0 0 842 595" style="enable-background:new 0 0 842 595;" xml:space="preserve">
<style type="text/css">
	.st0{fill-rule:evenodd;clip-rule:evenodd;fill:#FFFFFF;}
</style>
<g id="lighthouse">
	<path class="st0" d="M454.2,161.5c51.1-2.6,25.6-1.2,76.6-4.2c-51.2,1.5-25.6,0.7-76.8,2.6L454.2,161.5z"/>
	<path class="st0" d="M454.2,166.9c51.1,2.6,25.6,1.2,76.6,4.2c-51.2-1.5-25.6-0.7-76.8-2.6L454.2,166.9z"/>
	<path class="st0" d="M454.7,161.5c51.1-2.6,25.6-1.2,76.6-4.2c-51.2,1.5-25.6,0.7-76.8,2.6L454.7,161.5z"/>
	<path class="st0" d="M454.6,166.9c51.1,2.6,25.6,1.2,76.6,4.2c-51.2-1.5-25.6-0.7-76.8-2.6L454.6,166.9z"/>
	<path class="st0" d="M387.3,163.2c-51.1-2.6-25.6-1.2-76.6-4.2c51.2,1.5,25.6,0.7,76.8,2.6L387.3,163.2z"/>
	<path class="st0" d="M387.3,168.5c-51.1,2.6-25.6,1.2-76.6,4.1c51.2-1.5,25.6-0.7,76.8-2.6L387.3,168.5z"/>
	<polygon class="st0" points="452,199.3 452,178.6 387.3,178.6 387.3,199 385.3,199 385.3,177.4 385.3,176.2 386.3,176.2 453,176.2 
		454,176.2 454,177.4 454,199.3 	"/>
	<rect x="406.9" y="175.5" class="st0" width="29.4" height="1"/>
	<rect x="394.3" y="177.4" class="st0" width="52.9" height="21.6"/>
	<path class="st0" d="M406.9,157.1h29.4h8.4c1.9-0.9,3.2-2.2,3.6-4.1l-27-18.2l-3.6,2.4L394.2,153c-0.1,1.8,0.7,3.2,2.9,4
		L406.9,157.1L406.9,157.1z M417.7,137.2L417.7,137.2l1-7.1c0.7,0.5,1.6,0.8,2.6,0.8c1,0,1.9-0.3,2.7-0.8l0.7,4.7l0.3,2.4l-3.7-2.5
		L417.7,137.2L417.7,137.2z M418.7,130.1c0.7,0.5,1.6,0.8,2.6,0.8c1,0,1.9-0.3,2.7-0.8c1.2-0.9,2.1-2.3,2.1-3.9
		c0-2.6-2.1-4.7-4.7-4.7c-2.6,0-4.7,2.1-4.7,4.7C416.6,127.8,417.5,129.3,418.7,130.1L418.7,130.1L418.7,130.1z M421.3,106.5
		l-0.1,7.4l-0.1,7.4h0.2h0.2l-0.1-7.4L421.3,106.5z"/>
	<path class="st0" d="M421.4,135.4l-3.3,2.2l0,0l-0.1,0l-23.3,15.7c0,0.7,0.1,1.3,0.5,1.8c0.4,0.6,1,1.1,2,1.4h9.8h29.4h8.3
		c0.8-0.4,1.5-0.9,2.1-1.5c0.5-0.5,0.9-1.2,1.1-1.9l-22.1-14.9v0l-0.9-0.6L421.4,135.4L421.4,135.4z M419.8,131.2L419.8,131.2
		c0.5,0.1,1,0.2,1.5,0.2c0.5,0,1-0.1,1.5-0.2c0.3-0.1,0.5-0.2,0.7-0.3l0.6,4l0.2,1.3l-2.7-1.8l-0.3-0.2l-0.3,0.2l-2.8,1.9l0.8-5.3
		C419.4,131,419.6,131.1,419.8,131.2L419.8,131.2z M419,129.7c0.3,0.2,0.7,0.4,1.1,0.5c0.4,0.1,0.8,0.2,1.2,0.2
		c0.4,0,0.9-0.1,1.2-0.2c0.4-0.1,0.8-0.3,1.1-0.5c0.6-0.4,1-0.9,1.4-1.5c0.3-0.6,0.5-1.3,0.5-2c0-1.2-0.5-2.2-1.2-3l0,0
		c-0.8-0.8-1.8-1.2-3-1.2c-1.2,0-2.2,0.5-3,1.2v0c-0.8,0.8-1.2,1.8-1.2,3c0,0.7,0.2,1.4,0.5,2C417.9,128.8,418.4,129.3,419,129.7
		L419,129.7L419,129.7z M420.7,113.9l0.1-7.4h1l0.1,7.4l0.1,7.1c1.2,0.1,2.3,0.7,3.1,1.5l0,0c0.9,0.9,1.5,2.3,1.5,3.7
		c0,0.9-0.2,1.7-0.6,2.4c-0.3,0.7-0.8,1.2-1.4,1.7l0.6,4.4l0.3,2.2l23.2,15.6l0.3,0.2l-0.1,0.3c-0.3,1-0.7,1.9-1.4,2.6
		c-0.7,0.7-1.5,1.3-2.5,1.8l-0.1,0h-0.1h-8.4h-29.4H397H397l-0.1,0c-1.2-0.4-2-1.1-2.5-1.8c-0.5-0.8-0.7-1.7-0.6-2.7l0-0.2l0.2-0.1
		l23.3-15.7l1-6.6c-0.6-0.5-1.1-1-1.5-1.7c-0.4-0.7-0.6-1.6-0.6-2.5c0-1.4,0.6-2.7,1.5-3.7v0c0.8-0.8,1.8-1.3,2.9-1.5L420.7,113.9z"
		/>
	<rect x="406.6" y="157.1" class="st0" width="0.7" height="20.3"/>
	<rect x="436" y="157.1" class="st0" width="0.7" height="20.3"/>
	<rect x="444.8" y="155.4" class="st0" width="1.2" height="22"/>
	<rect x="395.7" y="155.2" class="st0" width="1.2" height="22.2"/>
	<path class="st0" d="M436.2,269.7h4.9v13.7h-4.9V269.7L436.2,269.7z M438.4,315.2h4.9v13.7h-4.9V315.2L438.4,315.2z M434.8,242.9
		v-13.7h4.9v13.7H434.8L434.8,242.9z M453,198.7h-5.8v-21.3h-52.9v21.2l-6.9,0l-2.1,0v4.6c4.2,0.7,8.5,2.3,8.3,5.9l-12.2,176l76.9,0
		l-12.5-176c-0.3-3.6,4.1-5.2,8.3-5.9v-4.6H453z"/>
	<path class="st0" d="M240.4,399.7c12.8-1.4,100.5-24.9,104.1-25.1l3.5-6.2L240.4,399.7z"/>
	<path class="st0" d="M336.9,387.4c4.8-2.1,12.1-8.3,16.4-11.5l44-31.5l16.1,8.8c-1.9-2.1,0.6,0.2-2.1-2.2l-19.4-12.3L336.9,387.4z"
		/>
	<path class="st0" d="M345,373.6l-104.9,26c76.8-0.1,145.6-0.1,222.4-0.2c11.8-8.9,33.2-9.3,48.3,0l85.4-0.1l-79.8-25l-11.9,3.5
		L447.3,358c-1.9-0.7-4,0.6-6.4,2l-42.8,24.4l26.8-24.1l-28.7-16.7l-44,31.5c-4.3,3.1-9.4,7.7-14.2,9.7L345,373.6z"/>
	<polygon class="st0" points="455.9,362.6 504,379.3 455.5,356.7 	"/>
	<path class="st0" d="M516.5,371.2l-0.3,4.7l-11.4,3.4L516.5,371.2L516.5,371.2z M516.3,376l79.7,25l-79.4-29.7L516.3,376z"/>
	<path class="st0" d="M426.1,169.5c0-5.2-2.1-9.3-4.7-9.3c-2.6,0-4.7,4.2-4.7,9.3c0,2.4,0.5,4.6,1.2,6.2h7.1
		C425.7,174.1,426.1,171.9,426.1,169.5z"/>
	<path class="st0" d="M248,447.9c32.5,0.8,96.8-15.5,130.5-28.1c24.9-9.3,10.9-7.9,52.5,2.2c120.8,29.1,171.2,9.2,188.9,12.3
		c-66.5-2.4-120.6-4.8-181.5-28.3l-46.7-20.7c-10.9,9.9-13.9,14-28.7,22.9C337.6,423.4,275.5,444.9,248,447.9z"/>
	<path class="st0" d="M400.3,447.7c35.2,11.9,89.7,16.7,132.1,14.3c33.6-1.9,63.3-7.3,94.8-15.1c5.5-1.4,9.6-2.4,14.7-3.8
		c3.7-1,10-2.3,13.2-4.5c-12.3,0.4-32,4.8-45.6,6.4c-15.5,1.9-31.5,3.1-47.4,3.6c-58.7,1.9-62.1-5.1-96.8-6.9
		c5.8,5.2,32.3,12.1,39.1,13.5C467.1,457.3,426.4,448,400.3,447.7z"/>
	<path class="st0" d="M240.1,421.8c11.4-5.7,24.8-2,58-18.4c6.2-3,50.6,4.8,66.5-5.7c-47.1-0.6-45.2-10.4-56.3-13.4
		c-19.6,12.2-34,19.9-59.9,27.8c-11.5,3.5-23.2,6.2-35.8,8.5c-9.4,1.8-32.4,3.7-38.7,5.8c29.5,8.4,127.2-5,127.8-5
		C281.3,420.7,262.3,423.8,240.1,421.8z"/>
	<path class="st0" d="M435,400.8c18.8,1.7,36.1,0.2,52.2-4.7c7.1-2.2,12.1,2.2,19.1,5c38,15.4,74.4,19.9,119.3,17.1
		c-10.5-2.4-26-3.2-38.2-5.5c-23.5-4.5-45.4-11.9-66.1-21.7c-7.2-3.4-23.5-13.4-27.7-14.2C458.2,399.8,446.2,394.8,435,400.8z"/>
	<path class="st0" d="M368.9,438.7c8.9-2.5,16.9-7.5,22.6-12.2c-6.5,1.4-15.3,5.5-22.8,7.8c-23.3,7.2-48.1,13.5-73.1,16.7
		c21.8,2.2,57.9-2.1,80.5-7c3.6-0.8,6.4-1.3,8.9-3.3C378.9,440.7,373.1,441.6,368.9,438.7z"/>
	<path class="st0" d="M362.6,187c0.1,0.2,0.4,0.2,0.4,0.6c0.4,0.1,0.6,0.3,0.7,0.8c3.1,3,0.3,5,1.5,7.1c0.7,0.9,1.5,1.1,2.5,1.7
		c0.8,0.1,1.6,0.8,1.7,1c0.5,0.2,0.8,0.2,1.2,0.4c-1.3,0.1-2.8,0.1-3.8,0.5c0.5,1.9,2,2.7,2.3,4.9c0,0.1,0.1,0.2,0.2,0.3
		c-0.2,2.9,0.5,5.1,0.2,7.8c-1.7,0.1-1.6-1.6-2.4-2.4c-0.2-0.6-0.2-1.2-0.7-1.5c-0.1-0.6-0.2-1.2-0.7-1.4c-0.1-1.2-0.7-1.8-1-2.7
		c-0.3-0.9-0.9-1.7-1.4-2.4c0.1-0.6,0.3-1-0.5-1.2c-0.4-2.2-2-3.1-4.2-3c-0.6,0-1.6,0.9-2.2,0.7c-1.3-0.2,0.4-1.1-0.4-1.4
		c-0.7-0.3,0-0.8,0-0.8c0,0-1.1-0.7,0-1.2c-0.8-0.3-0.9-0.5-0.2-1.1c1-0.3,1.7,0.2,3,1.2c1.1,0.2,2,0,2.3-1.1
		c0.3-0.5,0.4-0.5-0.3-1.2c-0.1-0.9-0.2-1.9-0.5-2.5c0-0.1-0.2-0.6-0.3-1.3c0.1-0.5,0.1-0.9-0.3-1.1c0.3-0.6-0.1-1.2-0.3-1.4
		c0.2-0.8-0.3-1.1-0.3-1.2c0.2-2.3,0.4-2.1,0.4-2.2C359.6,183,362.7,185.8,362.6,187z"/>
	<path class="st0" d="M489.5,191.9c-0.1,0.2-0.4,0.2-0.4,0.6c-0.4,0.1-0.6,0.3-0.7,0.8c-3.1,3-0.3,5-1.5,7.1
		c-0.7,0.9-1.5,1.1-2.5,1.7c-0.8,0.1-1.6,0.8-1.7,1c-0.5,0.2-0.8,0.2-1.2,0.4c1.3,0.1,2.8,0.1,3.8,0.5c-0.5,1.9-2,2.7-2.3,4.9
		c0,0.1-0.1,0.2-0.2,0.3c0.2,2.9-0.5,5.1-0.2,7.8c1.7,0.1,1.6-1.6,2.4-2.4c0.2-0.6,0.2-1.2,0.7-1.5c0.1-0.6,0.2-1.2,0.7-1.4
		c0.1-1.2,0.7-1.8,1-2.7c0.3-0.9,0.9-1.7,1.4-2.4c-0.1-0.6-0.3-1,0.5-1.2c0.4-2.2,2-3.1,4.2-3c0.6,0,1.6,0.9,2.2,0.7
		c1.3-0.2-0.4-1.1,0.4-1.4c0.7-0.3,0-0.8,0-0.8c0,0,1.1-0.7,0-1.2c0.8-0.3,0.9-0.5,0.2-1.1c-1-0.3-1.7,0.2-3,1.2
		c-1.1,0.2-2,0-2.3-1.1c-0.3-0.5-0.4-0.5,0.3-1.2c0.1-0.9,0.3-1.9,0.5-2.5c0-0.1,0.2-0.6,0.3-1.3c-0.1-0.5-0.1-0.9,0.3-1.1
		c-0.3-0.6,0.1-1.2,0.3-1.4c-0.2-0.8,0.3-1.1,0.3-1.2c-0.2-2.3-0.4-2.1-0.4-2.2C492.6,187.9,489.5,190.6,489.5,191.9z"/>
	<path class="st0" d="M509.4,274.3c-0.1,0.2-0.3,0.2-0.3,0.4c-0.3,0.1-0.4,0.2-0.5,0.5c-2.2,2.1-0.2,3.5-1,5c-0.5,0.6-1,0.7-1.7,1.2
		c-0.5,0-1.1,0.6-1.2,0.7c-0.4,0.1-0.6,0.2-0.8,0.3c0.9,0.1,2,0.1,2.7,0.4c-0.4,1.3-1.4,1.9-1.6,3.4c0,0.1-0.1,0.1-0.1,0.2
		c0.1,2-0.4,3.6-0.1,5.5c1.2,0.1,1.1-1.1,1.7-1.7c0.1-0.4,0.1-0.9,0.5-1c0.1-0.4,0.2-0.8,0.5-1c0.1-0.8,0.5-1.2,0.7-1.9
		c0.2-0.6,0.6-1.2,1-1.7c-0.1-0.4-0.2-0.7,0.4-0.8c0.3-1.5,1.4-2.2,2.9-2.1c0.4,0,1.1,0.7,1.5,0.5c0.9-0.1-0.3-0.8,0.3-1
		c0.5-0.2,0-0.6,0-0.6c0,0,0.7-0.5,0-0.8c0.5-0.2,0.6-0.3,0.2-0.8c-0.7-0.2-1.2,0.2-2.1,0.8c-0.7,0.2-1.4,0-1.6-0.7
		c-0.2-0.4-0.3-0.3,0.2-0.8c0.1-0.6,0.2-1.3,0.3-1.7c0-0.1,0.1-0.4,0.2-0.9c-0.1-0.4-0.1-0.6,0.2-0.8c-0.2-0.4,0.1-0.8,0.2-0.9
		c-0.1-0.5,0.2-0.8,0.2-0.8c-0.1-1.6-0.3-1.5-0.3-1.5C511.5,271.5,509.3,273.4,509.4,274.3z"/>
</g>
</svg>
