<?xml version="1.0" encoding="utf-8"?>
<!-- Generator: Adobe Illustrator 20.0.0, SVG Export Plug-In . SVG Version: 6.00 Build 0)  -->
<svg version="1.1" id="Layer_1" xmlns="http://www.w3.org/2000/svg" xmlns:xlink="http://www.w3.org/1999/xlink" x="0px" y="0px"
	 viewBox="0 0 200 200" style="enable-background:new 0 0 200 200;" xml:space="preserve">
<style type="text/css">
	.st0{fill:#FFFFFF;}
</style>
<g>
	<g>
		<g>
			<path class="st0" d="M191.5,151.4l-28.9-28.9c-5.8-5.7-15.3-5.6-21.3,0.4l-14.6,14.6c-0.9-0.5-1.9-1-2.9-1.6
				c-9.2-5.1-21.8-12.1-35.1-25.4C75.5,97.2,68.5,84.6,63.4,75.4c-0.5-1-1.1-1.9-1.6-2.8l9.8-9.8l4.8-4.8c6-6,6.1-15.5,0.4-21.3
				L47.8,7.7C42.1,2,32.5,2.2,26.6,8.1l-8.2,8.2l0.2,0.2c-2.7,3.5-5,7.5-6.7,11.9c-1.6,4.1-2.5,8.1-3,12
				c-3.8,31.7,10.7,60.6,49.9,99.9c54.3,54.3,98.1,50.2,100,50c4.1-0.5,8.1-1.5,12.1-3c4.3-1.7,8.3-4,11.8-6.7l0.2,0.2l8.3-8.1
				C197.1,166.8,197.3,157.2,191.5,151.4z"/>
		</g>
	</g>
</g>
</svg>
