<?xml version="1.0" encoding="utf-8"?>
<!-- Generator: Adobe Illustrator 20.0.0, SVG Export Plug-In . SVG Version: 6.00 Build 0)  -->
<svg version="1.1" id="Layer_1" xmlns="http://www.w3.org/2000/svg" xmlns:xlink="http://www.w3.org/1999/xlink" x="0px" y="0px"
	 viewBox="0 0 200 200" style="enable-background:new 0 0 200 200;" xml:space="preserve">
<style type="text/css">
	.st0{opacity:0.5;}
	.st1{fill:#FFFFFF;}
</style>
<rect x="19.3" y="19" class="st0" width="161.3" height="161.3"/>
<polygon class="st1" points="49.8,108.2 100,58 150.2,108.2 "/>
<g>
	<path class="st1" d="M59.8,119.1c-0.2-0.9-0.8-1.6-1.6-2c-0.5-0.2-1-0.3-1.6-0.3c-1.1,0-2,0.4-2.7,1.3c-0.7,0.8-1.1,2.1-1.1,3.8
		c0,1.7,0.4,2.9,1.2,3.6c0.8,0.7,1.7,1.1,2.7,1.1c1,0,1.8-0.3,2.4-0.8c0.6-0.6,1-1.3,1.1-2.2h-3.2v-2.3h5.8v7.4h-1.9l-0.3-1.7
		c-0.6,0.7-1.1,1.1-1.5,1.4c-0.8,0.5-1.7,0.7-2.8,0.7c-1.8,0-3.3-0.6-4.5-1.9c-1.2-1.3-1.8-3-1.8-5.2c0-2.2,0.6-4,1.9-5.4
		c1.2-1.4,2.9-2,4.9-2c1.8,0,3.2,0.4,4.2,1.3c1.1,0.9,1.7,2,1.8,3.3H59.8z"/>
	<path class="st1" d="M74.6,127.4c-1,1.1-2.6,1.6-4.5,1.6c-2,0-3.5-0.5-4.5-1.6c-1.4-1.3-2.1-3.2-2.1-5.7c0-2.5,0.7-4.4,2.1-5.7
		c1-1.1,2.6-1.6,4.5-1.6c2,0,3.5,0.5,4.5,1.6c1.4,1.3,2.1,3.2,2.1,5.7C76.7,124.2,76,126.1,74.6,127.4z M72.8,125.3
		c0.7-0.8,1-2,1-3.6c0-1.6-0.3-2.8-1-3.6c-0.7-0.8-1.6-1.3-2.7-1.3c-1.1,0-2.1,0.4-2.7,1.3c-0.7,0.8-1,2-1,3.6c0,1.6,0.3,2.8,1,3.6
		c0.7,0.8,1.6,1.3,2.7,1.3C71.2,126.6,72.1,126.1,72.8,125.3z"/>
	<path class="st1" d="M80.8,128.6h-2.9v-13.9h2.9V128.6z"/>
	<path class="st1" d="M82.6,114.8h3l5.5,9.7v-9.7h2.7v13.9H91l-5.6-9.8v9.8h-2.7V114.8z"/>
	<path class="st1" d="M105.1,119.1c-0.2-0.9-0.8-1.6-1.6-2c-0.5-0.2-1-0.3-1.6-0.3c-1.1,0-2,0.4-2.7,1.3c-0.7,0.8-1.1,2.1-1.1,3.8
		c0,1.7,0.4,2.9,1.2,3.6c0.8,0.7,1.7,1.1,2.7,1.1c1,0,1.8-0.3,2.4-0.8c0.6-0.6,1-1.3,1.1-2.2h-3.2v-2.3h5.8v7.4h-1.9l-0.3-1.7
		c-0.6,0.7-1.1,1.1-1.5,1.4c-0.8,0.5-1.7,0.7-2.8,0.7c-1.8,0-3.3-0.6-4.5-1.9c-1.2-1.3-1.8-3-1.8-5.2c0-2.2,0.6-4,1.9-5.4
		c1.2-1.4,2.9-2,4.9-2c1.8,0,3.2,0.4,4.2,1.3c1.1,0.9,1.7,2,1.8,3.3H105.1z"/>
	<path class="st1" d="M116.2,114.8h2.9v8.5c0,1,0.1,1.6,0.3,2.1c0.3,0.8,1.1,1.2,2.3,1.2c1.2,0,1.9-0.4,2.3-1.2
		c0.2-0.4,0.3-1.1,0.3-2.1v-8.5h2.9v8.5c0,1.5-0.2,2.6-0.7,3.4c-0.9,1.5-2.5,2.3-4.9,2.3c-2.4,0-4-0.8-4.9-2.3
		c-0.5-0.8-0.7-2-0.7-3.4V114.8z"/>
	<path class="st1" d="M138.2,122.6c-0.8,0.7-2,1-3.5,1h-2.9v5H129v-13.9h5.9c1.4,0,2.5,0.4,3.3,1.1c0.8,0.7,1.2,1.8,1.2,3.3
		C139.4,120.8,139,121.9,138.2,122.6z M136,117.6c-0.4-0.3-0.9-0.5-1.5-0.5h-2.6v4.1h2.6c0.7,0,1.2-0.2,1.5-0.5
		c0.4-0.3,0.5-0.9,0.5-1.6C136.5,118.5,136.4,117.9,136,117.6z"/>
	<path class="st1" d="M142.5,115.3c0.7-0.5,1.6-0.7,2.7-0.7c1.4,0,2.6,0.3,3.5,1c0.9,0.7,1.4,1.7,1.4,3c0,0.8-0.2,1.5-0.6,2.1
		c-0.2,0.3-0.7,0.8-1.4,1.3l-0.7,0.5c-0.4,0.3-0.6,0.6-0.7,1c-0.1,0.2-0.1,0.6-0.1,1.1h-2.5c0-1.1,0.1-1.8,0.3-2.2
		c0.2-0.4,0.6-0.9,1.3-1.4l0.7-0.5c0.2-0.2,0.4-0.4,0.5-0.6c0.2-0.3,0.4-0.7,0.4-1.1c0-0.5-0.1-0.9-0.4-1.3
		c-0.3-0.4-0.8-0.6-1.5-0.6c-0.7,0-1.2,0.2-1.5,0.7c-0.3,0.5-0.5,1-0.5,1.5h-2.7C140.7,117.4,141.4,116.1,142.5,115.3z M144.1,125.9
		h2.8v2.7h-2.8V125.9z"/>
</g>
</svg>
