<?xml version="1.0" encoding="utf-8"?>
<!-- Generator: Adobe Illustrator 20.0.0, SVG Export Plug-In . SVG Version: 6.00 Build 0)  -->
<svg version="1.1" id="Layer_1" xmlns="http://www.w3.org/2000/svg" xmlns:xlink="http://www.w3.org/1999/xlink" x="0px" y="0px"
	 viewBox="0 0 48 48" style="enable-background:new 0 0 48 48;" xml:space="preserve">
<style type="text/css">
	.st0{fill:#CE1312;}
</style>
<title>Youtube-color</title>
<desc>Created with Sketch.</desc>
<g id="Icons">
	<g id="Color-" transform="translate(-200.000000, -368.000000)">
		<path id="Youtube" class="st0" d="M219,398.3l0-13.6l13,6.8L219,398.3z M247.5,382.3c0,0-0.5-3.3-1.9-4.8c-1.8-1.9-3.9-1.9-4.8-2
			C234.1,375,224,375,224,375h0c0,0-10.1,0-16.8,0.5c-0.9,0.1-3,0.1-4.8,2c-1.4,1.5-1.9,4.8-1.9,4.8s-0.5,3.9-0.5,7.8v3.7
			c0,3.9,0.5,7.8,0.5,7.8s0.5,3.3,1.9,4.8c1.8,1.9,4.2,1.9,5.3,2.1c3.8,0.4,16.3,0.5,16.3,0.5s10.1,0,16.8-0.5c0.9-0.1,3-0.1,4.8-2
			c1.4-1.5,1.9-4.8,1.9-4.8s0.5-3.9,0.5-7.8v-3.7C248,386.2,247.5,382.3,247.5,382.3L247.5,382.3z"/>
	</g>
</g>
</svg>
